<?xml version="1.0" encoding="UTF-8"?>
<svg id="Layer_2" data-name="Layer 2" xmlns="http://www.w3.org/2000/svg" viewBox="0 0 312.5 164.79">
  <defs>
    <style>
      .cls-1 {
        fill: none;
      }

      .cls-1, .cls-2, .cls-3 {
        stroke-width: 0px;
      }

      .cls-2 {
        fill: #fff;
      }

      .cls-3 {
        fill: #fdd60d;
      }
    </style>
  </defs>
  <g id="Layer_1-2" data-name="Layer 1">
    <g>
      <g>
        <path class="cls-2" d="m120.67,53.91h8.16v24.38l8.37-11.58h9.12l-9.5,12.22,10.03,13.71h-9.6l-8.43-12.48v12.48h-8.16v-38.73Z"/>
        <path class="cls-2" d="m149.79,53.91h8.16v38.73h-8.16v-38.73Z"/>
        <path class="cls-2" d="m162.12,79.67c0-7.74,5.28-13.5,12.43-13.5,2.88,0,5.39,1.01,7.15,2.67v-2.13h8v25.93h-8v-2.13c-1.76,1.66-4.27,2.67-7.15,2.67-7.15,0-12.43-5.76-12.43-13.49Zm19.9,0c0-3.63-2.35-6.14-5.76-6.14s-5.87,2.56-5.87,6.14,2.45,6.13,5.81,6.13,5.81-2.51,5.81-6.13Z"/>
        <path class="cls-2" d="m211.33,73.65h-.15c-3.66,0-7.57,1.41-7.57,4.89v14.24h-8.16v-26.07h8.16v3.28c2.49-3.72,6.13-3.3,7.72-3.28v6.94m0,0h-.15"/>
        <path class="cls-2" d="m220.24,73.65h-5.87v-6.94h5.87v-10.72h8.16v10.72h5.87v6.94h-5.87v18.99h-8.16v-18.99Z"/>
        <path class="cls-2" d="m235.6,79.67c0-7.74,6.03-13.55,13.92-13.55s13.07,5.44,13.07,12.96c0,.96-.11,1.92-.37,3.26l-18.56.05c.86,2.88,3.09,4.53,6.4,4.53,2.56,0,4.64-.86,6.19-2.67l4.48,4.48c-2.56,2.99-6.24,4.48-10.62,4.48-8.43,0-14.51-5.66-14.51-13.55Zm8.05-2.88l11.31-.05c-.64-2.88-2.45-4.38-5.39-4.38s-5.12,1.66-5.92,4.43Z"/>
        <path class="cls-2" d="m272.51,79.41l-8.8-12.7h9.55l4.32,7.04,4.37-7.04h8.85l-8.64,12.54,9.17,13.39h-9.44l-4.8-7.74-4.96,7.74h-8.91l9.28-13.23Z"/>
        <path class="cls-2" d="m298.42,73.65h-8.53l4.79-6.94h3.74v-10.72h8.16v10.72h5.87v6.94h-5.87v18.99h-8.16v-18.99Z"/>
      </g>
      <path class="cls-2" d="m66.89,94.2h-7.79v-7.95h9.01l1.46-8.93h-7.87v-7.95h9.17l2.52-15.5h8.76l-2.52,15.5h9.17l2.52-15.5h8.76l-2.52,15.5h8.11v7.95h-9.41l-1.38,8.93h8.11v7.95h-9.41l-2.68,16.72h-8.84l2.68-16.72h-9.09l-2.68,16.72h-8.85l2.76-16.72Zm19.15-7.95l1.46-8.93h-9.09l-1.46,8.93h9.09Z"/>
      <polygon class="cls-3" points="82.09 0 85.27 9.78 95.56 9.78 87.24 15.83 90.42 25.62 82.09 19.57 73.77 25.62 76.95 15.83 68.63 9.78 78.91 9.78 82.09 0"/>
      <polygon class="cls-3" points="40.94 11.19 48.58 18.07 57.49 12.93 53.31 22.33 60.95 29.21 50.72 28.14 46.54 37.53 44.4 27.47 34.17 26.4 43.08 21.25 40.94 11.19"/>
      <polygon class="cls-3" points="10.89 41.46 20.95 43.6 26.09 34.69 27.17 44.92 37.23 47.06 27.83 51.24 28.91 61.47 22.03 53.83 12.63 58.01 17.77 49.1 10.89 41.46"/>
      <polygon class="cls-3" points="0 82.7 9.78 79.52 9.78 69.23 15.83 77.55 25.62 74.37 19.57 82.7 25.62 91.02 15.83 87.84 9.78 96.16 9.78 85.87 0 82.7"/>
      <polygon class="cls-3" points="11.19 123.85 18.07 116.21 12.93 107.3 22.33 111.48 29.21 103.84 28.14 114.07 37.53 118.25 27.47 120.39 26.4 130.62 21.25 121.71 11.19 123.85"/>
      <polygon class="cls-3" points="41.46 153.9 43.6 143.84 34.69 138.69 44.92 137.62 47.06 127.56 51.24 136.95 61.47 135.88 53.83 142.76 58.01 152.16 49.1 147.02 41.46 153.9"/>
      <polygon class="cls-3" points="82.7 164.79 79.52 155 69.23 155 77.55 148.96 74.37 139.17 82.7 145.22 91.02 139.17 87.84 148.96 96.16 155 85.87 155 82.7 164.79"/>
      <polygon class="cls-3" points="123.85 153.6 116.21 146.72 107.3 151.86 111.48 142.46 103.84 135.58 114.07 136.65 118.25 127.25 120.39 137.32 130.62 138.39 121.71 143.54 123.85 153.6"/>
      <polygon class="cls-1" points="153.9 123.33 143.84 121.19 138.69 130.1 137.62 119.87 127.56 117.73 136.95 113.55 135.88 103.31 142.76 110.96 152.16 106.78 147.02 115.69 153.9 123.33"/>
      <polygon class="cls-1" points="164.79 82.09 155 85.27 155 95.56 148.96 87.24 139.17 90.42 145.22 82.09 139.17 73.77 148.96 76.95 155 68.63 155 78.91 164.79 82.09"/>
      <polygon class="cls-1" points="153.6 40.94 146.72 48.58 151.86 57.49 142.46 53.31 135.58 60.95 136.65 50.72 127.25 46.54 137.32 44.4 138.39 34.17 143.54 43.08 153.6 40.94"/>
      <polygon class="cls-3" points="123.33 10.89 121.19 20.95 130.1 26.09 119.87 27.17 117.73 37.23 113.55 27.83 103.31 28.91 110.96 22.03 106.78 12.63 115.69 17.77 123.33 10.89"/>
      <circle class="cls-1" cx="82.39" cy="82.39" r="56.78"/>
      <g>
        <path class="cls-2" d="m149.82,109.34c0-2.22,1.59-3.96,3.64-3.96.96,0,1.78.38,2.32.99v-4.62h1.73v11.36h-1.73v-.82c-.54.61-1.36.98-2.32.98-2.05,0-3.64-1.72-3.64-3.93Zm6.07-.02c0-1.36-.87-2.3-2.15-2.3s-2.15.95-2.15,2.3.88,2.3,2.15,2.3,2.15-.95,2.15-2.3Z"/>
        <path class="cls-2" d="m158.95,109.33c0-2.22,1.72-3.94,3.91-3.94s3.61,1.59,3.61,3.77c0,.25-.03.5-.09.82h-5.65c.25,1.04,1.07,1.67,2.21,1.67.77,0,1.47-.27,1.92-.8l1.1,1.12c-.74.87-1.83,1.31-3.01,1.31-2.27,0-4.01-1.69-4.01-3.94Zm1.78-.77h4.04c-.22-1.01-.88-1.58-1.94-1.58s-1.85.6-2.1,1.58Z"/>
        <path class="cls-2" d="m167.72,103.11c0-.58.43-1.04,1.03-1.04s1.03.46,1.03,1.04-.43,1.04-1.03,1.04-1.03-.46-1.03-1.04Zm.16,2.43h1.74v7.57h-1.74v-7.57Z"/>
        <path class="cls-2" d="m171.55,105.54h1.74v.87c.52-.65,1.32-1.02,2.26-1.02,1.7,0,2.93,1.5,2.93,2.98v4.75h-1.74v-4.37c0-1.01-.71-1.74-1.72-1.74s-1.74.73-1.74,1.74v4.37h-1.74v-7.57Z"/>
        <path class="cls-2" d="m179.75,109.33c0-2.22,1.72-3.94,3.91-3.94s3.61,1.59,3.61,3.77c0,.25-.03.5-.09.82h-5.65c.25,1.04,1.07,1.67,2.21,1.67.77,0,1.47-.27,1.92-.8l1.1,1.12c-.74.87-1.83,1.31-3.01,1.31-2.27,0-4.01-1.69-4.01-3.94Zm1.78-.77h4.04c-.22-1.01-.88-1.58-1.94-1.58s-1.85.6-2.1,1.58Z"/>
        <path class="cls-2" d="m191.26,111.41l1.23-1.23c.61.88,1.39,1.4,2.7,1.4,1.21,0,2-.54,2-1.42,0-2.59-5.24-1.23-5.24-5.17,0-1.94,1.58-3.08,3.61-3.08,1.45,0,2.62.63,3.34,1.51l-1.23,1.23c-.63-.71-1.28-1.06-2.16-1.06-1.1,0-1.75.46-1.75,1.26,0,2.33,5.24,1.09,5.24,5.19,0,1.99-1.5,3.22-3.88,3.22-1.75,0-2.9-.63-3.86-1.86Z"/>
        <path class="cls-2" d="m201.74,107.12h-1.81v-1.58h1.81v-3.15h1.73v3.15h1.81v1.58h-1.81v5.99h-1.73v-5.99Z"/>
        <path class="cls-2" d="m206.4,103.11c0-.58.43-1.04,1.03-1.04s1.03.46,1.03,1.04-.43,1.04-1.03,1.04-1.03-.46-1.03-1.04Zm.16,2.43h1.74v7.57h-1.74v-7.57Z"/>
        <path class="cls-2" d="m210.24,105.54h1.74v.77c.52-.6,1.29-.93,2.18-.93,1.04,0,1.94.46,2.43,1.26.57-.79,1.47-1.26,2.52-1.26,1.63,0,2.93,1.09,2.93,2.84v4.89h-1.74v-4.51c0-1.01-.71-1.59-1.64-1.59s-1.66.58-1.66,1.59v4.51h-1.74v-4.51c0-1.01-.71-1.59-1.64-1.59s-1.66.58-1.66,1.59v4.51h-1.74v-7.57Z"/>
        <path class="cls-2" d="m223.82,105.54h1.74v.77c.52-.6,1.29-.93,2.18-.93,1.04,0,1.94.46,2.43,1.26.57-.79,1.47-1.26,2.52-1.26,1.63,0,2.93,1.09,2.93,2.84v4.89h-1.74v-4.51c0-1.01-.71-1.59-1.64-1.59s-1.66.58-1.66,1.59v4.51h-1.74v-4.51c0-1.01-.71-1.59-1.64-1.59s-1.66.58-1.66,1.59v4.51h-1.74v-7.57Z"/>
        <path class="cls-2" d="m236.91,109.33c0-2.22,1.72-3.94,3.91-3.94s3.61,1.59,3.61,3.77c0,.25-.03.5-.09.82h-5.65c.25,1.04,1.07,1.67,2.21,1.67.77,0,1.47-.27,1.92-.8l1.1,1.12c-.74.87-1.83,1.31-3.01,1.31-2.27,0-4.01-1.69-4.01-3.94Zm1.78-.77h4.04c-.22-1.01-.88-1.58-1.94-1.58s-1.85.6-2.1,1.58Z"/>
        <path class="cls-2" d="m248.83,103.11c0-.58.43-1.04,1.02-1.04s1.03.46,1.03,1.04-.43,1.04-1.03,1.04-1.02-.46-1.02-1.04Zm.16,2.43h1.73v7.57h-1.73v-7.57Z"/>
        <path class="cls-2" d="m252.66,105.54h1.74v.87c.52-.65,1.32-1.02,2.26-1.02,1.7,0,2.93,1.5,2.93,2.98v4.75h-1.73v-4.37c0-1.01-.71-1.74-1.72-1.74s-1.74.73-1.74,1.74v4.37h-1.74v-7.57Z"/>
        <path class="cls-2" d="m268.02,102.07h1.26l4.51,11.04h-1.96l-.84-2.13h-4.75l-.85,2.13h-1.92l4.54-11.04Zm2.35,7.34l-1.74-4.4-1.75,4.4h3.49Z"/>
        <path class="cls-2" d="m275.14,101.75h1.74v7.35l3.06-3.56h2.07l-3.19,3.63,3.34,3.94h-2.21l-3.08-3.71v3.71h-1.74v-11.36Z"/>
        <path class="cls-2" d="m283.84,107.12h-1.81v-1.58h1.81v-3.15h1.74v3.15h1.81v1.58h-1.81v5.99h-1.74v-5.99Z"/>
        <path class="cls-2" d="m288.51,103.11c0-.58.43-1.04,1.02-1.04s1.03.46,1.03,1.04-.43,1.04-1.03,1.04-1.02-.46-1.02-1.04Zm.16,2.43h1.73v7.57h-1.73v-7.57Z"/>
        <path class="cls-2" d="m291.85,109.31c0-2.19,1.74-3.93,3.96-3.93s3.97,1.72,3.97,3.93-1.74,3.96-3.97,3.96-3.96-1.75-3.96-3.96Zm6.15,0c0-1.32-.91-2.26-2.19-2.26s-2.18.95-2.18,2.26.9,2.29,2.18,2.29,2.19-.95,2.19-2.29Z"/>
        <path class="cls-2" d="m301.22,105.54h1.74v.87c.52-.65,1.32-1.02,2.26-1.02,1.7,0,2.93,1.5,2.93,2.98v4.75h-1.74v-4.37c0-1.01-.71-1.74-1.72-1.74s-1.74.73-1.74,1.74v4.37h-1.74v-7.57Z"/>
        <path class="cls-2" d="m310.84,113.21c-.41-.09-.77-.52-.77-1.06,0-.66.5-1.21,1.18-1.21.63,0,1.18.54,1.18,1.21,0,.27-.09.61-.39,1.18l-1.17,2.15-.96-.52.93-1.75Z"/>
        <path class="cls-2" d="m185.98,121h7.35v1.66h-5.54v2.95h5.08v1.59h-5.08v3.19h5.62v1.66h-7.43v-11.04Z"/>
        <path class="cls-2" d="m194.86,128.87v-4.4h1.73v4.32c0,1.1.57,1.74,1.56,1.74s1.56-.61,1.56-1.74v-4.32h1.74v4.4c0,1.99-1.34,3.33-3.3,3.33s-3.3-1.37-3.3-3.33Z"/>
        <path class="cls-2" d="m203.2,124.47h1.74v.79c.43-.6,1.09-.95,1.97-.95.76,0,1.36.27,1.88.87l-1.14,1.17c-.28-.28-.6-.41-1.04-.41-.98,0-1.67.6-1.67,1.89v4.21h-1.74v-7.57Z"/>
        <path class="cls-2" d="m208.91,128.24c0-2.19,1.74-3.93,3.96-3.93s3.97,1.72,3.97,3.93-1.74,3.96-3.97,3.96-3.96-1.75-3.96-3.96Zm6.15,0c0-1.32-.91-2.26-2.19-2.26s-2.18.95-2.18,2.26.9,2.29,2.18,2.29,2.19-.95,2.19-2.29Z"/>
        <path class="cls-2" d="m218.28,124.47h1.74v.84c.54-.61,1.36-.99,2.32-.99,2.05,0,3.64,1.73,3.64,3.96s-1.59,3.93-3.64,3.93c-.96,0-1.78-.36-2.32-.98v3.97h-1.74v-10.73Zm5.92,3.79c0-1.36-.88-2.3-2.14-2.3s-2.15.95-2.15,2.3.87,2.3,2.15,2.3,2.14-.95,2.14-2.3Z"/>
        <path class="cls-2" d="m226.95,128.27c0-2.22,1.59-3.96,3.64-3.96.96,0,1.78.38,2.32.99v-.84h1.73v7.57h-1.73v-.82c-.54.61-1.36.98-2.32.98-2.05,0-3.64-1.72-3.64-3.93Zm6.07-.02c0-1.36-.87-2.3-2.15-2.3s-2.15.95-2.15,2.3.88,2.3,2.15,2.3,2.15-.95,2.15-2.3Z"/>
        <path class="cls-2" d="m239.26,128.27c0-2.22,1.59-3.96,3.64-3.96.96,0,1.78.38,2.32.99v-.84h1.73v7.57h-1.73v-.82c-.54.61-1.36.98-2.32.98-2.05,0-3.64-1.72-3.64-3.93Zm6.07-.02c0-1.36-.87-2.3-2.15-2.3s-2.15.95-2.15,2.3.88,2.3,2.15,2.3,2.15-.95,2.15-2.3Z"/>
        <path class="cls-2" d="m248.88,120.68h1.74v11.36h-1.74v-11.36Z"/>
        <path class="cls-2" d="m251.87,130.81l1.1-1.1c.52.61,1.2.91,2.07.91.77,0,1.18-.24,1.18-.68,0-1.37-3.93-.55-3.93-3.3,0-1.45,1.06-2.33,2.79-2.33,1.22,0,2.16.44,2.79,1.29l-1.1,1.1c-.44-.55-.99-.82-1.73-.82-.69,0-1.09.22-1.09.62,0,1.25,3.93.5,3.93,3.3,0,1.48-1.1,2.4-2.87,2.4-1.28,0-2.41-.5-3.14-1.39Z"/>
        <path class="cls-2" d="m262.71,121h1.26l4.18,6.88,4.18-6.88h1.26v11.04h-1.81v-7.07l-3,4.92h-1.26l-3-4.92v7.07h-1.81v-11.04Z"/>
        <path class="cls-2" d="m275.61,122.04c0-.58.43-1.04,1.02-1.04s1.03.46,1.03,1.04-.43,1.04-1.03,1.04-1.02-.46-1.02-1.04Zm.16,2.43h1.73v7.57h-1.73v-7.57Z"/>
        <path class="cls-2" d="m278.78,130.81l1.1-1.1c.52.61,1.2.91,2.07.91.77,0,1.18-.24,1.18-.68,0-1.37-3.93-.55-3.93-3.3,0-1.45,1.06-2.33,2.79-2.33,1.22,0,2.16.44,2.79,1.29l-1.1,1.1c-.44-.55-.99-.82-1.73-.82-.69,0-1.09.22-1.09.62,0,1.25,3.93.5,3.93,3.3,0,1.48-1.1,2.4-2.87,2.4-1.28,0-2.41-.5-3.14-1.39Z"/>
        <path class="cls-2" d="m285.56,130.81l1.1-1.1c.52.61,1.2.91,2.07.91.77,0,1.18-.24,1.18-.68,0-1.37-3.93-.55-3.93-3.3,0-1.45,1.06-2.33,2.79-2.33,1.21,0,2.16.44,2.79,1.29l-1.1,1.1c-.44-.55-.99-.82-1.74-.82-.69,0-1.09.22-1.09.62,0,1.25,3.93.5,3.93,3.3,0,1.48-1.1,2.4-2.87,2.4-1.28,0-2.41-.5-3.14-1.39Z"/>
        <path class="cls-2" d="m292.86,122.04c0-.58.43-1.04,1.03-1.04s1.03.46,1.03,1.04-.43,1.04-1.03,1.04-1.03-.46-1.03-1.04Zm.16,2.43h1.74v7.57h-1.74v-7.57Z"/>
        <path class="cls-2" d="m296.21,128.24c0-2.19,1.73-3.93,3.96-3.93s3.97,1.72,3.97,3.93-1.74,3.96-3.97,3.96-3.96-1.75-3.96-3.96Zm6.15,0c0-1.32-.92-2.26-2.19-2.26s-2.18.95-2.18,2.26.9,2.29,2.18,2.29,2.19-.95,2.19-2.29Z"/>
        <path class="cls-2" d="m305.58,124.47h1.74v.87c.52-.65,1.32-1.02,2.26-1.02,1.7,0,2.93,1.5,2.93,2.98v4.75h-1.73v-4.37c0-1.01-.71-1.74-1.72-1.74s-1.74.73-1.74,1.74v4.37h-1.74v-7.57Z"/>
      </g>
    </g>
  </g>
</svg>