<?xml version="1.0" encoding="UTF-8"?>
<svg id="Layer_1" data-name="Layer 1" xmlns="http://www.w3.org/2000/svg" viewBox="0 0 1000 1000">
  <defs>
    <style>
      .cls-1 {
        fill: #194790;
      }

      .cls-1, .cls-2, .cls-3, .cls-4, .cls-5, .cls-6 {
        stroke-width: 0px;
      }

      .cls-3 {
        fill: none;
      }

      .cls-4 {
        fill: #fff;
      }

      .cls-5 {
        fill: #231f20;
      }

      .cls-6 {
        fill: #fdd60d;
      }
    </style>
  </defs>
  <rect class="cls-1" x="0" width="500" height="500"/>
  <rect class="cls-4" x="500" width="500" height="500"/>
  <rect class="cls-1" x="500" y="500" width="500" height="500"/>
  <rect class="cls-4" y="500" width="500" height="500"/>
  <g>
    <g>
      <path class="cls-4" d="m214.42,221.52h8.16v24.38l8.37-11.58h9.12l-9.5,12.22,10.03,13.71h-9.6l-8.43-12.48v12.48h-8.16v-38.73Z"/>
      <path class="cls-4" d="m243.54,221.52h8.16v38.73h-8.16v-38.73Z"/>
      <path class="cls-4" d="m255.87,247.28c0-7.74,5.28-13.5,12.43-13.5,2.88,0,5.39,1.01,7.15,2.67v-2.13h8v25.93h-8v-2.13c-1.76,1.66-4.27,2.67-7.15,2.67-7.15,0-12.43-5.76-12.43-13.49Zm19.9,0c0-3.63-2.35-6.14-5.76-6.14s-5.87,2.56-5.87,6.14,2.45,6.13,5.81,6.13,5.81-2.51,5.81-6.13Z"/>
      <path class="cls-4" d="m305.08,241.25h-.15c-3.66,0-7.57,1.41-7.57,4.89v14.24h-8.16v-26.07h8.16v3.28c2.49-3.72,6.13-3.3,7.72-3.28v6.94m0,0h-.15"/>
      <path class="cls-4" d="m313.99,241.25h-5.87v-6.94h5.87v-10.72h8.16v10.72h5.87v6.94h-5.87v18.99h-8.16v-18.99Z"/>
      <path class="cls-4" d="m329.35,247.28c0-7.74,6.03-13.55,13.92-13.55s13.07,5.44,13.07,12.96c0,.96-.11,1.92-.37,3.26l-18.56.05c.86,2.88,3.09,4.53,6.4,4.53,2.56,0,4.64-.86,6.19-2.67l4.48,4.48c-2.56,2.99-6.24,4.48-10.62,4.48-8.43,0-14.51-5.66-14.51-13.55Zm8.05-2.88l11.31-.05c-.64-2.88-2.45-4.38-5.39-4.38s-5.12,1.66-5.92,4.43Z"/>
      <path class="cls-4" d="m366.26,247.01l-8.8-12.7h9.55l4.32,7.04,4.37-7.04h8.85l-8.64,12.54,9.17,13.39h-9.44l-4.8-7.74-4.96,7.74h-8.91l9.28-13.23Z"/>
      <path class="cls-4" d="m392.17,241.25h-8.53l4.79-6.94h3.74v-10.72h8.16v10.72h5.87v6.94h-5.87v18.99h-8.16v-18.99Z"/>
    </g>
    <path class="cls-4" d="m160.64,261.81h-7.79v-7.95h9.01l1.46-8.93h-7.87v-7.95h9.17l2.52-15.5h8.76l-2.52,15.5h9.17l2.52-15.5h8.76l-2.52,15.5h8.11v7.95h-9.41l-1.38,8.93h8.11v7.95h-9.41l-2.68,16.72h-8.84l2.68-16.72h-9.09l-2.68,16.72h-8.85l2.76-16.72Zm19.15-7.95l1.46-8.93h-9.09l-1.46,8.93h9.09Z"/>
    <polygon class="cls-6" points="175.84 167.61 179.02 177.39 189.31 177.39 180.99 183.44 184.17 193.22 175.84 187.17 167.52 193.22 170.7 183.44 162.38 177.39 172.66 177.39 175.84 167.61"/>
    <polygon class="cls-6" points="134.69 178.8 142.33 185.68 151.24 180.54 147.06 189.93 154.7 196.82 144.47 195.74 140.29 205.14 138.15 195.08 127.92 194 136.83 188.86 134.69 178.8"/>
    <polygon class="cls-6" points="104.64 209.06 114.7 211.2 119.84 202.29 120.92 212.52 130.98 214.66 121.58 218.85 122.66 229.08 115.78 221.43 106.38 225.62 111.52 216.71 104.64 209.06"/>
    <polygon class="cls-6" points="93.75 250.3 103.53 247.12 103.53 236.83 109.58 245.16 119.37 241.98 113.32 250.3 119.37 258.62 109.58 255.44 103.53 263.77 103.53 253.48 93.75 250.3"/>
    <polygon class="cls-6" points="104.94 291.46 111.82 283.81 106.68 274.9 116.08 279.09 122.96 271.44 121.89 281.67 131.28 285.86 121.22 288 120.15 298.23 115 289.32 104.94 291.46"/>
    <polygon class="cls-6" points="135.21 321.51 137.35 311.44 128.44 306.3 138.67 305.22 140.81 295.16 144.99 304.56 155.22 303.48 147.58 310.37 151.76 319.77 142.85 314.62 135.21 321.51"/>
    <polygon class="cls-6" points="176.45 332.39 173.27 322.61 162.98 322.61 171.3 316.56 168.12 306.78 176.45 312.83 184.77 306.78 181.59 316.56 189.91 322.61 179.62 322.61 176.45 332.39"/>
    <polygon class="cls-6" points="217.6 321.2 209.96 314.32 201.05 319.46 205.23 310.07 197.59 303.18 207.82 304.26 212 294.86 214.14 304.92 224.37 306 215.46 311.14 217.6 321.2"/>
    <polygon class="cls-3" points="247.65 290.94 237.59 288.8 232.44 297.71 231.37 287.48 221.31 285.34 230.7 281.15 229.63 270.92 236.51 278.57 245.91 274.38 240.77 283.29 247.65 290.94"/>
    <polygon class="cls-3" points="258.54 249.7 248.75 252.88 248.75 263.17 242.71 254.84 232.92 258.02 238.97 249.7 232.92 241.38 242.71 244.56 248.75 236.23 248.75 246.52 258.54 249.7"/>
    <polygon class="cls-3" points="247.35 208.54 240.47 216.19 245.61 225.1 236.21 220.91 229.33 228.56 230.4 218.33 221 214.14 231.07 212 232.14 201.77 237.29 210.68 247.35 208.54"/>
    <polygon class="cls-6" points="217.08 178.49 214.94 188.56 223.85 193.7 213.62 194.78 211.48 204.84 207.3 195.44 197.06 196.52 204.71 189.63 200.53 180.23 209.44 185.38 217.08 178.49"/>
    <circle class="cls-3" cx="176.14" cy="250" r="56.78"/>
    <g>
      <path class="cls-4" d="m243.57,276.95c0-2.22,1.59-3.96,3.64-3.96.96,0,1.78.38,2.32.99v-4.62h1.73v11.36h-1.73v-.82c-.54.61-1.36.98-2.32.98-2.05,0-3.64-1.72-3.64-3.93Zm6.07-.02c0-1.36-.87-2.3-2.15-2.3s-2.15.95-2.15,2.3.88,2.3,2.15,2.3,2.15-.95,2.15-2.3Z"/>
      <path class="cls-4" d="m252.7,276.93c0-2.22,1.72-3.94,3.91-3.94s3.61,1.59,3.61,3.77c0,.25-.03.5-.09.82h-5.65c.25,1.04,1.07,1.67,2.21,1.67.77,0,1.47-.27,1.92-.8l1.1,1.12c-.74.87-1.83,1.31-3.01,1.31-2.27,0-4.01-1.69-4.01-3.94Zm1.78-.77h4.04c-.22-1.01-.88-1.58-1.94-1.58s-1.85.6-2.1,1.58Z"/>
      <path class="cls-4" d="m261.47,270.72c0-.58.43-1.04,1.03-1.04s1.03.46,1.03,1.04-.43,1.04-1.03,1.04-1.03-.46-1.03-1.04Zm.16,2.43h1.74v7.57h-1.74v-7.57Z"/>
      <path class="cls-4" d="m265.3,273.15h1.74v.87c.52-.65,1.32-1.02,2.26-1.02,1.7,0,2.93,1.5,2.93,2.98v4.75h-1.74v-4.37c0-1.01-.71-1.74-1.72-1.74s-1.74.73-1.74,1.74v4.37h-1.74v-7.57Z"/>
      <path class="cls-4" d="m273.5,276.93c0-2.22,1.72-3.94,3.91-3.94s3.61,1.59,3.61,3.77c0,.25-.03.5-.09.82h-5.65c.25,1.04,1.07,1.67,2.21,1.67.77,0,1.47-.27,1.92-.8l1.1,1.12c-.74.87-1.83,1.31-3.01,1.31-2.27,0-4.01-1.69-4.01-3.94Zm1.78-.77h4.04c-.22-1.01-.88-1.58-1.94-1.58s-1.85.6-2.1,1.58Z"/>
      <path class="cls-4" d="m285.01,279.01l1.23-1.23c.61.88,1.39,1.4,2.7,1.4,1.21,0,2-.54,2-1.42,0-2.59-5.24-1.23-5.24-5.17,0-1.94,1.58-3.08,3.61-3.08,1.45,0,2.62.63,3.34,1.51l-1.23,1.23c-.63-.71-1.28-1.06-2.16-1.06-1.1,0-1.75.46-1.75,1.26,0,2.33,5.24,1.09,5.24,5.19,0,1.99-1.5,3.22-3.88,3.22-1.75,0-2.9-.63-3.86-1.86Z"/>
      <path class="cls-4" d="m295.49,274.72h-1.81v-1.58h1.81v-3.15h1.73v3.15h1.81v1.58h-1.81v5.99h-1.73v-5.99Z"/>
      <path class="cls-4" d="m300.15,270.72c0-.58.43-1.04,1.03-1.04s1.03.46,1.03,1.04-.43,1.04-1.03,1.04-1.03-.46-1.03-1.04Zm.16,2.43h1.74v7.57h-1.74v-7.57Z"/>
      <path class="cls-4" d="m303.99,273.15h1.74v.77c.52-.6,1.29-.93,2.18-.93,1.04,0,1.94.46,2.43,1.26.57-.79,1.47-1.26,2.52-1.26,1.63,0,2.93,1.09,2.93,2.84v4.89h-1.74v-4.51c0-1.01-.71-1.59-1.64-1.59s-1.66.58-1.66,1.59v4.51h-1.74v-4.51c0-1.01-.71-1.59-1.64-1.59s-1.66.58-1.66,1.59v4.51h-1.74v-7.57Z"/>
      <path class="cls-4" d="m317.57,273.15h1.74v.77c.52-.6,1.29-.93,2.18-.93,1.04,0,1.94.46,2.43,1.26.57-.79,1.47-1.26,2.52-1.26,1.63,0,2.93,1.09,2.93,2.84v4.89h-1.74v-4.51c0-1.01-.71-1.59-1.64-1.59s-1.66.58-1.66,1.59v4.51h-1.74v-4.51c0-1.01-.71-1.59-1.64-1.59s-1.66.58-1.66,1.59v4.51h-1.74v-7.57Z"/>
      <path class="cls-4" d="m330.66,276.93c0-2.22,1.72-3.94,3.91-3.94s3.61,1.59,3.61,3.77c0,.25-.03.5-.09.82h-5.65c.25,1.04,1.07,1.67,2.21,1.67.77,0,1.47-.27,1.92-.8l1.1,1.12c-.74.87-1.83,1.31-3.01,1.31-2.27,0-4.01-1.69-4.01-3.94Zm1.78-.77h4.04c-.22-1.01-.88-1.58-1.94-1.58s-1.85.6-2.1,1.58Z"/>
      <path class="cls-4" d="m342.58,270.72c0-.58.43-1.04,1.02-1.04s1.03.46,1.03,1.04-.43,1.04-1.03,1.04-1.02-.46-1.02-1.04Zm.16,2.43h1.73v7.57h-1.73v-7.57Z"/>
      <path class="cls-4" d="m346.41,273.15h1.74v.87c.52-.65,1.32-1.02,2.26-1.02,1.7,0,2.93,1.5,2.93,2.98v4.75h-1.73v-4.37c0-1.01-.71-1.74-1.72-1.74s-1.74.73-1.74,1.74v4.37h-1.74v-7.57Z"/>
      <path class="cls-4" d="m361.77,269.68h1.26l4.51,11.04h-1.96l-.84-2.13h-4.75l-.85,2.13h-1.92l4.54-11.04Zm2.35,7.34l-1.74-4.4-1.75,4.4h3.49Z"/>
      <path class="cls-4" d="m368.89,269.36h1.74v7.35l3.06-3.56h2.07l-3.19,3.63,3.34,3.94h-2.21l-3.08-3.71v3.71h-1.74v-11.36Z"/>
      <path class="cls-4" d="m377.59,274.72h-1.81v-1.58h1.81v-3.15h1.74v3.15h1.81v1.58h-1.81v5.99h-1.74v-5.99Z"/>
      <path class="cls-4" d="m382.26,270.72c0-.58.43-1.04,1.02-1.04s1.03.46,1.03,1.04-.43,1.04-1.03,1.04-1.02-.46-1.02-1.04Zm.16,2.43h1.73v7.57h-1.73v-7.57Z"/>
      <path class="cls-4" d="m385.6,276.92c0-2.19,1.74-3.93,3.96-3.93s3.97,1.72,3.97,3.93-1.74,3.96-3.97,3.96-3.96-1.75-3.96-3.96Zm6.15,0c0-1.32-.91-2.26-2.19-2.26s-2.18.95-2.18,2.26.9,2.29,2.18,2.29,2.19-.95,2.19-2.29Z"/>
      <path class="cls-4" d="m394.97,273.15h1.74v.87c.52-.65,1.32-1.02,2.26-1.02,1.7,0,2.93,1.5,2.93,2.98v4.75h-1.74v-4.37c0-1.01-.71-1.74-1.72-1.74s-1.74.73-1.74,1.74v4.37h-1.74v-7.57Z"/>
      <path class="cls-4" d="m404.59,280.81c-.41-.09-.77-.52-.77-1.06,0-.66.5-1.21,1.18-1.21.63,0,1.18.54,1.18,1.21,0,.27-.09.61-.39,1.18l-1.17,2.15-.96-.52.93-1.75Z"/>
      <path class="cls-4" d="m279.73,288.6h7.35v1.66h-5.54v2.95h5.08v1.59h-5.08v3.19h5.62v1.66h-7.43v-11.04Z"/>
      <path class="cls-4" d="m288.61,296.47v-4.4h1.73v4.32c0,1.1.57,1.74,1.56,1.74s1.56-.61,1.56-1.74v-4.32h1.74v4.4c0,1.99-1.34,3.33-3.3,3.33s-3.3-1.37-3.3-3.33Z"/>
      <path class="cls-4" d="m296.95,292.07h1.74v.79c.43-.6,1.09-.95,1.97-.95.76,0,1.36.27,1.88.87l-1.14,1.17c-.28-.28-.6-.41-1.04-.41-.98,0-1.67.6-1.67,1.89v4.21h-1.74v-7.57Z"/>
      <path class="cls-4" d="m302.66,295.84c0-2.19,1.74-3.93,3.96-3.93s3.97,1.72,3.97,3.93-1.74,3.96-3.97,3.96-3.96-1.75-3.96-3.96Zm6.15,0c0-1.32-.91-2.26-2.19-2.26s-2.18.95-2.18,2.26.9,2.29,2.18,2.29,2.19-.95,2.19-2.29Z"/>
      <path class="cls-4" d="m312.03,292.07h1.74v.84c.54-.61,1.36-.99,2.32-.99,2.05,0,3.64,1.73,3.64,3.96s-1.59,3.93-3.64,3.93c-.96,0-1.78-.36-2.32-.98v3.97h-1.74v-10.73Zm5.92,3.79c0-1.36-.88-2.3-2.14-2.3s-2.15.95-2.15,2.3.87,2.3,2.15,2.3,2.14-.95,2.14-2.3Z"/>
      <path class="cls-4" d="m320.7,295.87c0-2.22,1.59-3.96,3.64-3.96.96,0,1.78.38,2.32.99v-.84h1.73v7.57h-1.73v-.82c-.54.61-1.36.98-2.32.98-2.05,0-3.64-1.72-3.64-3.93Zm6.07-.02c0-1.36-.87-2.3-2.15-2.3s-2.15.95-2.15,2.3.88,2.3,2.15,2.3,2.15-.95,2.15-2.3Z"/>
      <path class="cls-4" d="m333.01,295.87c0-2.22,1.59-3.96,3.64-3.96.96,0,1.78.38,2.32.99v-.84h1.73v7.57h-1.73v-.82c-.54.61-1.36.98-2.32.98-2.05,0-3.64-1.72-3.64-3.93Zm6.07-.02c0-1.36-.87-2.3-2.15-2.3s-2.15.95-2.15,2.3.88,2.3,2.15,2.3,2.15-.95,2.15-2.3Z"/>
      <path class="cls-4" d="m342.63,288.29h1.74v11.36h-1.74v-11.36Z"/>
      <path class="cls-4" d="m345.62,298.41l1.1-1.1c.52.61,1.2.91,2.07.91.77,0,1.18-.24,1.18-.68,0-1.37-3.93-.55-3.93-3.3,0-1.45,1.06-2.33,2.79-2.33,1.22,0,2.16.44,2.79,1.29l-1.1,1.1c-.44-.55-.99-.82-1.73-.82-.69,0-1.09.22-1.09.62,0,1.25,3.93.5,3.93,3.3,0,1.48-1.1,2.4-2.87,2.4-1.28,0-2.41-.5-3.14-1.39Z"/>
      <path class="cls-4" d="m356.46,288.6h1.26l4.18,6.88,4.18-6.88h1.26v11.04h-1.81v-7.07l-3,4.92h-1.26l-3-4.92v7.07h-1.81v-11.04Z"/>
      <path class="cls-4" d="m369.36,289.64c0-.58.43-1.04,1.02-1.04s1.03.46,1.03,1.04-.43,1.04-1.03,1.04-1.02-.46-1.02-1.04Zm.16,2.43h1.73v7.57h-1.73v-7.57Z"/>
      <path class="cls-4" d="m372.53,298.41l1.1-1.1c.52.61,1.2.91,2.07.91.77,0,1.18-.24,1.18-.68,0-1.37-3.93-.55-3.93-3.3,0-1.45,1.06-2.33,2.79-2.33,1.22,0,2.16.44,2.79,1.29l-1.1,1.1c-.44-.55-.99-.82-1.73-.82-.69,0-1.09.22-1.09.62,0,1.25,3.93.5,3.93,3.3,0,1.48-1.1,2.4-2.87,2.4-1.28,0-2.41-.5-3.14-1.39Z"/>
      <path class="cls-4" d="m379.31,298.41l1.1-1.1c.52.61,1.2.91,2.07.91.77,0,1.18-.24,1.18-.68,0-1.37-3.93-.55-3.93-3.3,0-1.45,1.06-2.33,2.79-2.33,1.21,0,2.16.44,2.79,1.29l-1.1,1.1c-.44-.55-.99-.82-1.74-.82-.69,0-1.09.22-1.09.62,0,1.25,3.93.5,3.93,3.3,0,1.48-1.1,2.4-2.87,2.4-1.28,0-2.41-.5-3.14-1.39Z"/>
      <path class="cls-4" d="m386.61,289.64c0-.58.43-1.04,1.03-1.04s1.03.46,1.03,1.04-.43,1.04-1.03,1.04-1.03-.46-1.03-1.04Zm.16,2.43h1.74v7.57h-1.74v-7.57Z"/>
      <path class="cls-4" d="m389.96,295.84c0-2.19,1.73-3.93,3.96-3.93s3.97,1.72,3.97,3.93-1.74,3.96-3.97,3.96-3.96-1.75-3.96-3.96Zm6.15,0c0-1.32-.92-2.26-2.19-2.26s-2.18.95-2.18,2.26.9,2.29,2.18,2.29,2.19-.95,2.19-2.29Z"/>
      <path class="cls-4" d="m399.33,292.07h1.74v.87c.52-.65,1.32-1.02,2.26-1.02,1.7,0,2.93,1.5,2.93,2.98v4.75h-1.73v-4.37c0-1.01-.71-1.74-1.72-1.74s-1.74.73-1.74,1.74v4.37h-1.74v-7.57Z"/>
    </g>
  </g>
  <g>
    <g>
      <path class="cls-2" d="m714.42,221.52h8.16v24.38l8.37-11.58h9.12l-9.5,12.22,10.03,13.71h-9.6l-8.43-12.48v12.48h-8.16v-38.73Z"/>
      <path class="cls-2" d="m743.54,221.52h8.16v38.73h-8.16v-38.73Z"/>
      <path class="cls-2" d="m755.87,247.28c0-7.74,5.28-13.5,12.43-13.5,2.88,0,5.39,1.01,7.15,2.67v-2.13h8v25.93h-8v-2.13c-1.76,1.66-4.27,2.67-7.15,2.67-7.15,0-12.43-5.76-12.43-13.49Zm19.9,0c0-3.63-2.35-6.14-5.76-6.14s-5.87,2.56-5.87,6.14,2.45,6.13,5.81,6.13,5.81-2.51,5.81-6.13Z"/>
      <path class="cls-2" d="m805.08,241.25h-.15c-3.66,0-7.57,1.41-7.57,4.89v14.24h-8.16v-26.07h8.16v3.28c2.49-3.72,6.13-3.3,7.72-3.28v6.94m0,0h-.15"/>
      <path class="cls-2" d="m813.99,241.25h-5.87v-6.94h5.87v-10.72h8.16v10.72h5.87v6.94h-5.87v18.99h-8.16v-18.99Z"/>
      <path class="cls-2" d="m829.35,247.28c0-7.74,6.03-13.55,13.92-13.55s13.07,5.44,13.07,12.96c0,.96-.11,1.92-.37,3.26l-18.56.05c.86,2.88,3.09,4.53,6.4,4.53,2.56,0,4.64-.86,6.19-2.67l4.48,4.48c-2.56,2.99-6.24,4.48-10.62,4.48-8.43,0-14.51-5.66-14.51-13.55Zm8.05-2.88l11.31-.05c-.64-2.88-2.45-4.38-5.39-4.38s-5.12,1.66-5.92,4.43Z"/>
      <path class="cls-2" d="m866.26,247.01l-8.8-12.7h9.55l4.32,7.04,4.37-7.04h8.85l-8.64,12.54,9.17,13.39h-9.44l-4.8-7.74-4.96,7.74h-8.91l9.28-13.23Z"/>
      <path class="cls-2" d="m892.17,241.25h-8.53l4.79-6.94h3.74v-10.72h8.16v10.72h5.87v6.94h-5.87v18.99h-8.16v-18.99Z"/>
    </g>
    <path class="cls-2" d="m660.64,261.81h-7.79v-7.95h9.01l1.46-8.93h-7.87v-7.95h9.17l2.52-15.5h8.76l-2.52,15.5h9.17l2.52-15.5h8.76l-2.52,15.5h8.11v7.95h-9.41l-1.38,8.93h8.11v7.95h-9.41l-2.68,16.72h-8.84l2.68-16.72h-9.09l-2.68,16.72h-8.85l2.76-16.72Zm19.15-7.95l1.46-8.93h-9.09l-1.46,8.93h9.09Z"/>
    <polygon class="cls-6" points="675.84 167.61 679.02 177.39 689.31 177.39 680.99 183.44 684.17 193.22 675.84 187.17 667.52 193.22 670.7 183.44 662.38 177.39 672.66 177.39 675.84 167.61"/>
    <polygon class="cls-6" points="634.69 178.8 642.33 185.68 651.24 180.54 647.06 189.93 654.7 196.82 644.47 195.74 640.29 205.14 638.15 195.08 627.92 194 636.83 188.86 634.69 178.8"/>
    <polygon class="cls-6" points="604.64 209.06 614.7 211.2 619.84 202.29 620.92 212.52 630.98 214.66 621.58 218.85 622.66 229.08 615.78 221.43 606.38 225.62 611.52 216.71 604.64 209.06"/>
    <polygon class="cls-6" points="593.75 250.3 603.53 247.12 603.53 236.83 609.58 245.16 619.37 241.98 613.32 250.3 619.37 258.62 609.58 255.44 603.53 263.77 603.53 253.48 593.75 250.3"/>
    <polygon class="cls-6" points="604.94 291.46 611.82 283.81 606.68 274.9 616.08 279.09 622.96 271.44 621.89 281.67 631.28 285.86 621.22 288 620.15 298.23 615 289.32 604.94 291.46"/>
    <polygon class="cls-6" points="635.21 321.51 637.35 311.44 628.44 306.3 638.67 305.22 640.81 295.16 644.99 304.56 655.22 303.48 647.58 310.37 651.76 319.77 642.85 314.62 635.21 321.51"/>
    <polygon class="cls-6" points="676.45 332.39 673.27 322.61 662.98 322.61 671.3 316.56 668.12 306.78 676.45 312.83 684.77 306.78 681.59 316.56 689.91 322.61 679.62 322.61 676.45 332.39"/>
    <polygon class="cls-6" points="717.6 321.2 709.96 314.32 701.05 319.46 705.23 310.07 697.59 303.18 707.82 304.26 712 294.86 714.14 304.92 724.37 306 715.46 311.14 717.6 321.2"/>
    <polygon class="cls-3" points="747.65 290.94 737.59 288.8 732.44 297.71 731.37 287.48 721.31 285.34 730.7 281.15 729.63 270.92 736.51 278.57 745.91 274.38 740.77 283.29 747.65 290.94"/>
    <polygon class="cls-3" points="758.54 249.7 748.75 252.88 748.75 263.17 742.71 254.84 732.92 258.02 738.97 249.7 732.92 241.38 742.71 244.56 748.75 236.23 748.75 246.52 758.54 249.7"/>
    <polygon class="cls-3" points="747.35 208.54 740.47 216.19 745.61 225.1 736.21 220.91 729.33 228.56 730.4 218.33 721 214.14 731.07 212 732.14 201.77 737.29 210.68 747.35 208.54"/>
    <polygon class="cls-6" points="717.08 178.49 714.94 188.56 723.85 193.7 713.62 194.78 711.48 204.84 707.3 195.44 697.06 196.52 704.71 189.63 700.53 180.23 709.44 185.38 717.08 178.49"/>
    <circle class="cls-3" cx="676.14" cy="250" r="56.78"/>
    <g>
      <path class="cls-2" d="m743.57,276.95c0-2.22,1.59-3.96,3.64-3.96.96,0,1.78.38,2.32.99v-4.62h1.73v11.36h-1.73v-.82c-.54.61-1.36.98-2.32.98-2.05,0-3.64-1.72-3.64-3.93Zm6.07-.02c0-1.36-.87-2.3-2.15-2.3s-2.15.95-2.15,2.3.88,2.3,2.15,2.3,2.15-.95,2.15-2.3Z"/>
      <path class="cls-2" d="m752.7,276.93c0-2.22,1.72-3.94,3.91-3.94s3.61,1.59,3.61,3.77c0,.25-.03.5-.09.82h-5.65c.25,1.04,1.07,1.67,2.21,1.67.77,0,1.47-.27,1.92-.8l1.1,1.12c-.74.87-1.83,1.31-3.01,1.31-2.27,0-4.01-1.69-4.01-3.94Zm1.78-.77h4.04c-.22-1.01-.88-1.58-1.94-1.58s-1.85.6-2.1,1.58Z"/>
      <path class="cls-2" d="m761.47,270.72c0-.58.43-1.04,1.03-1.04s1.03.46,1.03,1.04-.43,1.04-1.03,1.04-1.03-.46-1.03-1.04Zm.16,2.43h1.74v7.57h-1.74v-7.57Z"/>
      <path class="cls-2" d="m765.3,273.15h1.74v.87c.52-.65,1.32-1.02,2.26-1.02,1.7,0,2.93,1.5,2.93,2.98v4.75h-1.74v-4.37c0-1.01-.71-1.74-1.72-1.74s-1.74.73-1.74,1.74v4.37h-1.74v-7.57Z"/>
      <path class="cls-2" d="m773.5,276.93c0-2.22,1.72-3.94,3.91-3.94s3.61,1.59,3.61,3.77c0,.25-.03.5-.09.82h-5.65c.25,1.04,1.07,1.67,2.21,1.67.77,0,1.47-.27,1.92-.8l1.1,1.12c-.74.87-1.83,1.31-3.01,1.31-2.27,0-4.01-1.69-4.01-3.94Zm1.78-.77h4.04c-.22-1.01-.88-1.58-1.94-1.58s-1.85.6-2.1,1.58Z"/>
      <path class="cls-2" d="m785.01,279.01l1.23-1.23c.61.88,1.39,1.4,2.7,1.4,1.21,0,2-.54,2-1.42,0-2.59-5.24-1.23-5.24-5.17,0-1.94,1.58-3.08,3.61-3.08,1.45,0,2.62.63,3.34,1.51l-1.23,1.23c-.63-.71-1.28-1.06-2.16-1.06-1.1,0-1.75.46-1.75,1.26,0,2.33,5.24,1.09,5.24,5.19,0,1.99-1.5,3.22-3.88,3.22-1.75,0-2.9-.63-3.86-1.86Z"/>
      <path class="cls-2" d="m795.49,274.72h-1.81v-1.58h1.81v-3.15h1.73v3.15h1.81v1.58h-1.81v5.99h-1.73v-5.99Z"/>
      <path class="cls-2" d="m800.15,270.72c0-.58.43-1.04,1.03-1.04s1.03.46,1.03,1.04-.43,1.04-1.03,1.04-1.03-.46-1.03-1.04Zm.16,2.43h1.74v7.57h-1.74v-7.57Z"/>
      <path class="cls-2" d="m803.99,273.15h1.74v.77c.52-.6,1.29-.93,2.18-.93,1.04,0,1.94.46,2.43,1.26.57-.79,1.47-1.26,2.52-1.26,1.63,0,2.93,1.09,2.93,2.84v4.89h-1.74v-4.51c0-1.01-.71-1.59-1.64-1.59s-1.66.58-1.66,1.59v4.51h-1.74v-4.51c0-1.01-.71-1.59-1.64-1.59s-1.66.58-1.66,1.59v4.51h-1.74v-7.57Z"/>
      <path class="cls-2" d="m817.57,273.15h1.74v.77c.52-.6,1.29-.93,2.18-.93,1.04,0,1.94.46,2.43,1.26.57-.79,1.47-1.26,2.52-1.26,1.63,0,2.93,1.09,2.93,2.84v4.89h-1.74v-4.51c0-1.01-.71-1.59-1.64-1.59s-1.66.58-1.66,1.59v4.51h-1.74v-4.51c0-1.01-.71-1.59-1.64-1.59s-1.66.58-1.66,1.59v4.51h-1.74v-7.57Z"/>
      <path class="cls-2" d="m830.66,276.93c0-2.22,1.72-3.94,3.91-3.94s3.61,1.59,3.61,3.77c0,.25-.03.5-.09.82h-5.65c.25,1.04,1.07,1.67,2.21,1.67.77,0,1.47-.27,1.92-.8l1.1,1.12c-.74.87-1.83,1.31-3.01,1.31-2.27,0-4.01-1.69-4.01-3.94Zm1.78-.77h4.04c-.22-1.01-.88-1.58-1.94-1.58s-1.85.6-2.1,1.58Z"/>
      <path class="cls-2" d="m842.58,270.72c0-.58.43-1.04,1.02-1.04s1.03.46,1.03,1.04-.43,1.04-1.03,1.04-1.02-.46-1.02-1.04Zm.16,2.43h1.73v7.57h-1.73v-7.57Z"/>
      <path class="cls-2" d="m846.41,273.15h1.74v.87c.52-.65,1.32-1.02,2.26-1.02,1.7,0,2.93,1.5,2.93,2.98v4.75h-1.73v-4.37c0-1.01-.71-1.74-1.72-1.74s-1.74.73-1.74,1.74v4.37h-1.74v-7.57Z"/>
      <path class="cls-2" d="m861.77,269.68h1.26l4.51,11.04h-1.96l-.84-2.13h-4.75l-.85,2.13h-1.92l4.54-11.04Zm2.35,7.34l-1.74-4.4-1.75,4.4h3.49Z"/>
      <path class="cls-2" d="m868.89,269.36h1.74v7.35l3.06-3.56h2.07l-3.19,3.63,3.34,3.94h-2.21l-3.08-3.71v3.71h-1.74v-11.36Z"/>
      <path class="cls-2" d="m877.59,274.72h-1.81v-1.58h1.81v-3.15h1.74v3.15h1.81v1.58h-1.81v5.99h-1.74v-5.99Z"/>
      <path class="cls-2" d="m882.26,270.72c0-.58.43-1.04,1.02-1.04s1.03.46,1.03,1.04-.43,1.04-1.03,1.04-1.02-.46-1.02-1.04Zm.16,2.43h1.73v7.57h-1.73v-7.57Z"/>
      <path class="cls-2" d="m885.6,276.92c0-2.19,1.74-3.93,3.96-3.93s3.97,1.72,3.97,3.93-1.74,3.96-3.97,3.96-3.96-1.75-3.96-3.96Zm6.15,0c0-1.32-.91-2.26-2.19-2.26s-2.18.95-2.18,2.26.9,2.29,2.18,2.29,2.19-.95,2.19-2.29Z"/>
      <path class="cls-2" d="m894.97,273.15h1.74v.87c.52-.65,1.32-1.02,2.26-1.02,1.7,0,2.93,1.5,2.93,2.98v4.75h-1.74v-4.37c0-1.01-.71-1.74-1.72-1.74s-1.74.73-1.74,1.74v4.37h-1.74v-7.57Z"/>
      <path class="cls-2" d="m904.59,280.81c-.41-.09-.77-.52-.77-1.06,0-.66.5-1.21,1.18-1.21.63,0,1.18.54,1.18,1.21,0,.27-.09.61-.39,1.18l-1.17,2.15-.96-.52.93-1.75Z"/>
      <path class="cls-2" d="m779.73,288.6h7.35v1.66h-5.54v2.95h5.08v1.59h-5.08v3.19h5.62v1.66h-7.43v-11.04Z"/>
      <path class="cls-2" d="m788.61,296.47v-4.4h1.73v4.32c0,1.1.57,1.74,1.56,1.74s1.56-.61,1.56-1.74v-4.32h1.74v4.4c0,1.99-1.34,3.33-3.3,3.33s-3.3-1.37-3.3-3.33Z"/>
      <path class="cls-2" d="m796.95,292.07h1.74v.79c.43-.6,1.09-.95,1.97-.95.76,0,1.36.27,1.88.87l-1.14,1.17c-.28-.28-.6-.41-1.04-.41-.98,0-1.67.6-1.67,1.89v4.21h-1.74v-7.57Z"/>
      <path class="cls-2" d="m802.66,295.84c0-2.19,1.74-3.93,3.96-3.93s3.97,1.72,3.97,3.93-1.74,3.96-3.97,3.96-3.96-1.75-3.96-3.96Zm6.15,0c0-1.32-.91-2.26-2.19-2.26s-2.18.95-2.18,2.26.9,2.29,2.18,2.29,2.19-.95,2.19-2.29Z"/>
      <path class="cls-2" d="m812.03,292.07h1.74v.84c.54-.61,1.36-.99,2.32-.99,2.05,0,3.64,1.73,3.64,3.96s-1.59,3.93-3.64,3.93c-.96,0-1.78-.36-2.32-.98v3.97h-1.74v-10.73Zm5.92,3.79c0-1.36-.88-2.3-2.14-2.3s-2.15.95-2.15,2.3.87,2.3,2.15,2.3,2.14-.95,2.14-2.3Z"/>
      <path class="cls-2" d="m820.7,295.87c0-2.22,1.59-3.96,3.64-3.96.96,0,1.78.38,2.32.99v-.84h1.73v7.57h-1.73v-.82c-.54.61-1.36.98-2.32.98-2.05,0-3.64-1.72-3.64-3.93Zm6.07-.02c0-1.36-.87-2.3-2.15-2.3s-2.15.95-2.15,2.3.88,2.3,2.15,2.3,2.15-.95,2.15-2.3Z"/>
      <path class="cls-2" d="m833.01,295.87c0-2.22,1.59-3.96,3.64-3.96.96,0,1.78.38,2.32.99v-.84h1.73v7.57h-1.73v-.82c-.54.61-1.36.98-2.32.98-2.05,0-3.64-1.72-3.64-3.93Zm6.07-.02c0-1.36-.87-2.3-2.15-2.3s-2.15.95-2.15,2.3.88,2.3,2.15,2.3,2.15-.95,2.15-2.3Z"/>
      <path class="cls-2" d="m842.63,288.29h1.74v11.36h-1.74v-11.36Z"/>
      <path class="cls-2" d="m845.62,298.41l1.1-1.1c.52.61,1.2.91,2.07.91.77,0,1.18-.24,1.18-.68,0-1.37-3.93-.55-3.93-3.3,0-1.45,1.06-2.33,2.79-2.33,1.22,0,2.16.44,2.79,1.29l-1.1,1.1c-.44-.55-.99-.82-1.73-.82-.69,0-1.09.22-1.09.62,0,1.25,3.93.5,3.93,3.3,0,1.48-1.1,2.4-2.87,2.4-1.28,0-2.41-.5-3.14-1.39Z"/>
      <path class="cls-2" d="m856.46,288.6h1.26l4.18,6.88,4.18-6.88h1.26v11.04h-1.81v-7.07l-3,4.92h-1.26l-3-4.92v7.07h-1.81v-11.04Z"/>
      <path class="cls-2" d="m869.36,289.64c0-.58.43-1.04,1.02-1.04s1.03.46,1.03,1.04-.43,1.04-1.03,1.04-1.02-.46-1.02-1.04Zm.16,2.43h1.73v7.57h-1.73v-7.57Z"/>
      <path class="cls-2" d="m872.53,298.41l1.1-1.1c.52.61,1.2.91,2.07.91.77,0,1.18-.24,1.18-.68,0-1.37-3.93-.55-3.93-3.3,0-1.45,1.06-2.33,2.79-2.33,1.22,0,2.16.44,2.79,1.29l-1.1,1.1c-.44-.55-.99-.82-1.73-.82-.69,0-1.09.22-1.09.62,0,1.25,3.93.5,3.93,3.3,0,1.48-1.1,2.4-2.87,2.4-1.28,0-2.41-.5-3.14-1.39Z"/>
      <path class="cls-2" d="m879.31,298.41l1.1-1.1c.52.61,1.2.91,2.07.91.77,0,1.18-.24,1.18-.68,0-1.37-3.93-.55-3.93-3.3,0-1.45,1.06-2.33,2.79-2.33,1.21,0,2.16.44,2.79,1.29l-1.1,1.1c-.44-.55-.99-.82-1.74-.82-.69,0-1.09.22-1.09.62,0,1.25,3.93.5,3.93,3.3,0,1.48-1.1,2.4-2.87,2.4-1.28,0-2.41-.5-3.14-1.39Z"/>
      <path class="cls-2" d="m886.61,289.64c0-.58.43-1.04,1.03-1.04s1.03.46,1.03,1.04-.43,1.04-1.03,1.04-1.03-.46-1.03-1.04Zm.16,2.43h1.74v7.57h-1.74v-7.57Z"/>
      <path class="cls-2" d="m889.96,295.84c0-2.19,1.73-3.93,3.96-3.93s3.97,1.72,3.97,3.93-1.74,3.96-3.97,3.96-3.96-1.75-3.96-3.96Zm6.15,0c0-1.32-.92-2.26-2.19-2.26s-2.18.95-2.18,2.26.9,2.29,2.18,2.29,2.19-.95,2.19-2.29Z"/>
      <path class="cls-2" d="m899.33,292.07h1.74v.87c.52-.65,1.32-1.02,2.26-1.02,1.7,0,2.93,1.5,2.93,2.98v4.75h-1.73v-4.37c0-1.01-.71-1.74-1.72-1.74s-1.74.73-1.74,1.74v4.37h-1.74v-7.57Z"/>
    </g>
  </g>
  <g>
    <g>
      <path class="cls-4" d="m714.44,730.34h8.16v24.38l8.38-11.58h9.12l-9.5,12.22,10.03,13.71h-9.6l-8.43-12.48v12.48h-8.16v-38.73Z"/>
      <path class="cls-4" d="m743.57,730.34h8.16v38.73h-8.16v-38.73Z"/>
      <path class="cls-4" d="m755.89,756.11c0-7.74,5.28-13.5,12.43-13.5,2.88,0,5.39,1.01,7.15,2.67v-2.14h8.01v25.93h-8.01v-2.14c-1.76,1.66-4.27,2.67-7.15,2.67-7.15,0-12.43-5.76-12.43-13.5Zm19.9,0c0-3.63-2.35-6.14-5.76-6.14s-5.87,2.56-5.87,6.14,2.45,6.14,5.81,6.14,5.81-2.51,5.81-6.14Z"/>
      <path class="cls-4" d="m805.12,750.08h-.15c-3.67,0-7.57,1.41-7.57,4.89v14.25h-8.16v-26.08h8.16v3.28c2.49-3.72,6.14-3.3,7.72-3.28v6.94m0,0h-.15"/>
      <path class="cls-4" d="m814.02,750.08h-5.87v-6.94h5.87v-10.72h8.16v10.72h5.87v6.94h-5.87v18.99h-8.16v-18.99Z"/>
      <path class="cls-4" d="m829.39,756.11c0-7.74,6.03-13.55,13.93-13.55s13.07,5.44,13.07,12.96c0,.96-.11,1.92-.37,3.26l-18.57.05c.86,2.88,3.09,4.54,6.4,4.54,2.56,0,4.64-.86,6.19-2.67l4.48,4.48c-2.56,2.99-6.24,4.48-10.62,4.48-8.43,0-14.51-5.66-14.51-13.55Zm8.06-2.88l11.31-.05c-.64-2.88-2.45-4.38-5.39-4.38s-5.12,1.66-5.92,4.43Z"/>
      <path class="cls-4" d="m866.3,755.84l-8.8-12.7h9.55l4.32,7.04,4.37-7.04h8.86l-8.64,12.54,9.18,13.39h-9.44l-4.8-7.74-4.96,7.74h-8.91l9.28-13.23Z"/>
      <path class="cls-4" d="m892.22,750.08h-8.53l4.79-6.94h3.74v-10.72h8.16v10.72h5.87v6.94h-5.87v18.99h-8.16v-18.99Z"/>
    </g>
    <path class="cls-4" d="m660.66,761.81h-7.79v-7.95h9.01l1.46-8.93h-7.87v-7.95h9.17l2.52-15.5h8.77l-2.52,15.5h9.17l2.52-15.5h8.77l-2.52,15.5h8.12v7.95h-9.41l-1.38,8.93h8.12v7.95h-9.41l-2.68,16.72h-8.85l2.68-16.72h-9.09l-2.68,16.72h-8.85l2.76-16.72Zm19.15-7.95l1.46-8.93h-9.09l-1.46,8.93h9.09Z"/>
    <polygon class="cls-6" points="675.86 667.59 679.04 677.38 689.33 677.38 681 683.43 684.18 693.21 675.86 687.16 667.53 693.21 670.71 683.43 662.39 677.38 672.68 677.38 675.86 667.59"/>
    <polygon class="cls-6" points="634.69 678.78 642.34 685.67 651.25 680.52 647.07 689.92 654.71 696.81 644.48 695.73 640.29 705.13 638.15 695.07 627.92 693.99 636.83 688.85 634.69 678.78"/>
    <polygon class="cls-6" points="604.64 709.06 614.7 711.2 619.85 702.29 620.92 712.52 630.99 714.66 621.59 718.84 622.67 729.08 615.78 721.43 606.38 725.61 611.52 716.7 604.64 709.06"/>
    <polygon class="cls-6" points="593.75 750.3 603.54 747.12 603.54 736.83 609.58 745.16 619.37 741.98 613.32 750.3 619.37 758.63 609.58 755.45 603.54 763.77 603.54 753.48 593.75 750.3"/>
    <polygon class="cls-6" points="604.94 791.46 611.83 783.82 606.68 774.91 616.08 779.09 622.97 771.45 621.89 781.68 631.29 785.86 621.23 788 620.15 798.24 615.01 789.33 604.94 791.46"/>
    <polygon class="cls-6" points="635.21 821.52 637.35 811.45 628.44 806.31 638.68 805.23 640.82 795.17 645 804.57 655.23 803.49 647.59 810.38 651.77 819.78 642.86 814.63 635.21 821.52"/>
    <polygon class="cls-6" points="676.46 832.41 673.28 822.62 662.99 822.62 671.31 816.57 668.13 806.79 676.46 812.84 684.78 806.79 681.6 816.57 689.93 822.62 679.64 822.62 676.46 832.41"/>
    <polygon class="cls-6" points="717.62 821.22 709.98 814.33 701.07 819.48 705.25 810.08 697.6 803.19 707.84 804.27 712.02 794.87 714.16 804.93 724.39 806.01 715.48 811.15 717.62 821.22"/>
    <polygon class="cls-3" points="747.68 790.94 737.61 788.8 732.47 797.71 731.39 787.48 721.33 785.34 730.73 781.16 729.65 770.92 736.54 778.57 745.94 774.39 740.79 783.3 747.68 790.94"/>
    <polygon class="cls-3" points="758.57 749.7 748.78 752.88 748.78 763.17 742.73 754.84 732.95 758.02 738.99 749.7 732.95 741.37 742.73 744.55 748.78 736.23 748.78 746.52 758.57 749.7"/>
    <polygon class="cls-3" points="747.37 708.54 740.49 716.18 745.63 725.09 736.23 720.91 729.35 728.55 730.43 718.32 721.03 714.14 731.09 712 732.17 701.76 737.31 710.67 747.37 708.54"/>
    <polygon class="cls-6" points="717.1 678.48 714.96 688.55 723.87 693.69 713.64 694.77 711.5 704.83 707.32 695.43 697.08 696.51 704.73 689.62 700.54 680.22 709.45 685.37 717.1 678.48"/>
    <circle class="cls-3" cx="676.16" cy="750" r="56.79"/>
  </g>
  <g>
    <g>
      <path class="cls-5" d="m214.44,730.34h8.16v24.38l8.38-11.58h9.12l-9.5,12.22,10.03,13.71h-9.6l-8.43-12.48v12.48h-8.16v-38.73Z"/>
      <path class="cls-5" d="m243.57,730.34h8.16v38.73h-8.16v-38.73Z"/>
      <path class="cls-5" d="m255.89,756.11c0-7.74,5.28-13.5,12.43-13.5,2.88,0,5.39,1.01,7.15,2.67v-2.14h8.01v25.93h-8.01v-2.14c-1.76,1.66-4.27,2.67-7.15,2.67-7.15,0-12.43-5.76-12.43-13.5Zm19.9,0c0-3.63-2.35-6.14-5.76-6.14s-5.87,2.56-5.87,6.14,2.45,6.14,5.81,6.14,5.81-2.51,5.81-6.14Z"/>
      <path class="cls-5" d="m305.12,750.08h-.15c-3.67,0-7.57,1.41-7.57,4.89v14.25h-8.16v-26.08h8.16v3.28c2.49-3.72,6.14-3.3,7.72-3.28v6.94m0,0h-.15"/>
      <path class="cls-5" d="m314.02,750.08h-5.87v-6.94h5.87v-10.72h8.16v10.72h5.87v6.94h-5.87v18.99h-8.16v-18.99Z"/>
      <path class="cls-5" d="m329.39,756.11c0-7.74,6.03-13.55,13.93-13.55s13.07,5.44,13.07,12.96c0,.96-.11,1.92-.37,3.26l-18.57.05c.86,2.88,3.09,4.54,6.4,4.54,2.56,0,4.64-.86,6.19-2.67l4.48,4.48c-2.56,2.99-6.24,4.48-10.62,4.48-8.43,0-14.51-5.66-14.51-13.55Zm8.06-2.88l11.31-.05c-.64-2.88-2.45-4.38-5.39-4.38s-5.12,1.66-5.92,4.43Z"/>
      <path class="cls-5" d="m366.3,755.84l-8.8-12.7h9.55l4.32,7.04,4.37-7.04h8.86l-8.64,12.54,9.18,13.39h-9.44l-4.8-7.74-4.96,7.74h-8.91l9.28-13.23Z"/>
      <path class="cls-5" d="m392.22,750.08h-8.53l4.79-6.94h3.74v-10.72h8.16v10.72h5.87v6.94h-5.87v18.99h-8.16v-18.99Z"/>
    </g>
    <path class="cls-5" d="m160.66,761.81h-7.79v-7.95h9.01l1.46-8.93h-7.87v-7.95h9.17l2.52-15.5h8.77l-2.52,15.5h9.17l2.52-15.5h8.77l-2.52,15.5h8.12v7.95h-9.41l-1.38,8.93h8.12v7.95h-9.41l-2.68,16.72h-8.85l2.68-16.72h-9.09l-2.68,16.72h-8.85l2.76-16.72Zm19.15-7.95l1.46-8.93h-9.09l-1.46,8.93h9.09Z"/>
    <polygon class="cls-6" points="175.86 667.59 179.04 677.38 189.33 677.38 181 683.43 184.18 693.21 175.86 687.16 167.53 693.21 170.71 683.43 162.39 677.38 172.68 677.38 175.86 667.59"/>
    <polygon class="cls-6" points="134.69 678.78 142.34 685.67 151.25 680.52 147.07 689.92 154.71 696.81 144.48 695.73 140.29 705.13 138.15 695.07 127.92 693.99 136.83 688.85 134.69 678.78"/>
    <polygon class="cls-6" points="104.64 709.06 114.7 711.2 119.85 702.29 120.92 712.52 130.99 714.66 121.59 718.84 122.67 729.08 115.78 721.43 106.38 725.61 111.52 716.7 104.64 709.06"/>
    <polygon class="cls-6" points="93.75 750.3 103.54 747.12 103.54 736.83 109.58 745.16 119.37 741.98 113.32 750.3 119.37 758.63 109.58 755.45 103.54 763.77 103.54 753.48 93.75 750.3"/>
    <polygon class="cls-6" points="104.94 791.46 111.83 783.82 106.68 774.91 116.08 779.09 122.97 771.45 121.89 781.68 131.29 785.86 121.23 788 120.15 798.24 115.01 789.33 104.94 791.46"/>
    <polygon class="cls-6" points="135.21 821.52 137.35 811.45 128.44 806.31 138.68 805.23 140.82 795.17 145 804.57 155.23 803.49 147.59 810.38 151.77 819.78 142.86 814.63 135.21 821.52"/>
    <polygon class="cls-6" points="176.46 832.41 173.28 822.62 162.99 822.62 171.31 816.57 168.13 806.79 176.46 812.84 184.78 806.79 181.6 816.57 189.93 822.62 179.64 822.62 176.46 832.41"/>
    <polygon class="cls-6" points="217.62 821.22 209.98 814.33 201.07 819.48 205.25 810.08 197.6 803.19 207.84 804.27 212.02 794.87 214.16 804.93 224.39 806.01 215.48 811.15 217.62 821.22"/>
    <polygon class="cls-3" points="247.68 790.94 237.61 788.8 232.47 797.71 231.39 787.48 221.33 785.34 230.73 781.16 229.65 770.92 236.54 778.57 245.94 774.39 240.79 783.3 247.68 790.94"/>
    <polygon class="cls-3" points="258.57 749.7 248.78 752.88 248.78 763.17 242.73 754.84 232.95 758.02 238.99 749.7 232.95 741.37 242.73 744.55 248.78 736.23 248.78 746.52 258.57 749.7"/>
    <polygon class="cls-3" points="247.37 708.54 240.49 716.18 245.63 725.09 236.23 720.91 229.35 728.55 230.43 718.32 221.03 714.14 231.09 712 232.17 701.76 237.31 710.67 247.37 708.54"/>
    <polygon class="cls-6" points="217.1 678.48 214.96 688.55 223.87 693.69 213.64 694.77 211.5 704.83 207.32 695.43 197.08 696.51 204.73 689.62 200.54 680.22 209.45 685.37 217.1 678.48"/>
    <circle class="cls-3" cx="176.16" cy="750" r="56.79"/>
  </g>
</svg>